Coordinates
version=1
nRows=17
nColumns=24
inDegrees=yes

Units are S.I. units (second, meters, Newtons, ...)
If the header above contains a line with 'inDegrees', this indicates whether rotational values are in degrees (yes) or radians (no).

endheader
time	pelvis_tilt	pelvis_list	pelvis_rotation	pelvis_tx	pelvis_ty	pelvis_tz	hip_flexion_r	hip_adduction_r	hip_rotation_r	knee_angle_r	ankle_angle_r	subtalar_angle_r	mtp_angle_r	hip_flexion_l	hip_adduction_l	hip_rotation_l	knee_angle_l	ankle_angle_l	subtalar_angle_l	mtp_angle_l	lumbar_extension	lumbar_bending	lumbar_rotation
      1.88300000	      4.50831502	      1.84722345	      1.94587796	      0.58362397	      1.00342238	     -0.00247755	     20.64262242	     -3.17703657	     -3.88925850	     -7.15633007	     -0.02485730	     -0.00000201	      0.00000000	    -22.55402687	      3.54282038	      5.40788107	     -7.74718922	     14.21662285	      0.00000208	      0.00000000	    -15.18701169	     -1.72491607	     -8.84990865
      1.90000000	      4.29412293	      1.66836048	      2.24066227	      0.58691958	      1.00293426	     -0.00047270	     21.30731562	     -2.90508207	     -4.01903113	    -10.24246327	     -1.09385804	     -0.00000237	      0.00000000	    -22.48061388	      3.09685731	      5.74754517	    -10.02620299	     13.96945476	      0.00000253	      0.00000000	    -14.64250065	     -1.18365435	     -8.85144020
      1.91700000	      4.42512674	      1.50849819	      2.57778802	      0.59027731	      1.00365642	      0.00141108	     21.63013672	     -2.72217465	     -4.17671545	    -13.57047291	     -1.73251246	     -0.00000269	      0.00000000	    -22.41078065	      2.67632851	      6.14880018	    -12.90671372	     13.38022045	      0.00000311	      0.00000000	    -14.52700894	     -0.56943036	     -9.08412942
      1.93300000	      4.53666466	      1.38465984	      2.72536820	      0.59459683	      1.00486361	      0.00330173	     21.80130686	     -2.54798890	     -4.01787096	    -16.76014820	     -1.86712082	     -0.00000312	      0.00000000	    -21.90728837	      2.42789192	      6.34758766	    -16.56627606	     12.39633934	      0.00000392	      0.00000000	    -14.22646290	     -0.07101774	     -8.88730565
      1.95000000	      4.89893336	      1.13786985	      3.09701778	      0.59850450	      1.00683943	      0.00511095	     21.38272119	     -2.29761773	     -4.06046481	    -19.40378603	     -1.75143225	     -0.00000352	      0.00000000	    -20.89751230	      2.01532753	      6.56716384	    -21.49072159	     11.06658578	      0.00000507	      0.00000000	    -14.32628041	      0.63207798	     -9.04477895
      1.96700000	      4.98290872	      1.28524408	      3.42532466	      0.60121349	      1.00841799	      0.00705631	     21.11956256	     -2.43984962	     -4.03900816	    -21.74010067	     -1.31319970	     -0.00000345	      0.00000000	    -18.72307966	      2.06743583	      6.54682465	    -27.69531091	      8.97545595	      0.00000648	      0.00000000	    -14.21656994	      0.81571739	     -9.10515642
      1.98300000	      5.09653868	      1.06921626	      3.62405509	      0.60386053	      1.01005104	      0.00939940	     20.48551414	     -2.13303271	     -4.16334358	    -23.40465770	     -0.64794534	     -0.00000328	      0.00000000	    -16.00882315	      1.69505341	      5.83834788	    -34.50960846	      5.84572959	      0.00000805	      0.00000000	    -14.20402066	      1.28676050	     -9.05831549
      2.00000000	      5.11055506	      0.85686356	      3.63451683	      0.60569486	      1.01147850	      0.01196706	     19.85484743	     -1.73943097	     -4.21949753	    -24.79964729	      0.37564495	     -0.00000304	      0.00000000	    -12.77495439	      1.20716909	      4.59830292	    -41.39868298	      1.62015794	      0.00000901	      0.00000000	    -14.02024991	      1.67504320	     -8.73914619
      2.01700000	      4.99912603	      0.27130581	      3.46760894	      0.60646810	      1.01273757	      0.01517422	     19.09010899	     -0.85915952	     -4.32090227	    -25.47120539	      1.42050986	     -0.00000281	      0.00000000	     -9.12432551	      0.09130324	      2.90005027	    -48.03878309	     -2.99415291	      0.00000919	      0.00000000	    -13.84172711	      2.40376624	     -7.95955922
      2.03300000	      4.94421888	     -0.43800079	      3.61560812	      0.60751196	      1.01469453	      0.01842184	     17.90224254	      0.12877316	     -4.74358895	    -25.52400716	      2.54373113	     -0.00000268	      0.00000000	     -5.64683936	     -1.45986825	      1.53145604	    -53.78035943	     -7.08336168	      0.00000845	      0.00000000	    -13.55295127	      3.11752898	     -7.52931787
      2.05000000	      4.99547180	     -1.07785530	      3.42818481	      0.60747471	      1.01719894	      0.02188694	     16.46742751	      1.15804907	     -4.83805474	    -25.11382408	      3.49720953	     -0.00000253	      0.00000000	     -2.43468404	     -2.89988668	      0.22139135	    -58.71041757	     -9.46779189	      0.00000661	      0.00000000	    -13.60613259	      3.70905867	     -6.66509592
      2.06700000	      5.25609965	     -1.56962214	      3.37840093	      0.60733948	      1.02037282	      0.02522968	     14.71978421	      2.03403080	     -4.88766725	    -24.55429219	      4.42829025	     -0.00000250	      0.00000000	      0.45086360	     -4.11493329	     -0.54979611	    -62.95627924	     -9.74562444	      0.00000479	      0.00000000	    -13.82370400	      4.00958601	     -6.03458225
      2.08300000	      5.31530829	     -1.74711973	      3.09230731	      0.60669507	      1.02377947	      0.02803772	     13.02683927	      2.55561456	     -4.62989852	    -23.61913527	      5.12135618	     -0.00000230	      0.00000000	      3.31954345	     -4.76187547	     -1.24625461	    -66.29274675	     -8.28602034	      0.00000291	      0.00000000	    -13.98256650	      4.02986159	     -5.06296650
      2.10000000	      5.42640038	     -1.84566436	      2.85665427	      0.60646289	      1.02752878	      0.03078711	     11.09078675	      2.97864095	     -4.38625012	    -22.37197269	      5.64049207	     -0.00000200	      0.00000000	      5.92955928	     -5.12008455	     -1.56684813	    -68.68773551	     -6.04835418	      0.00000144	      0.00000000	    -14.09173469	      3.87325305	     -4.32591161
      2.11700000	      5.71328438	     -1.80916253	      2.36056242	      0.60564667	      1.03159278	      0.03382260	      8.78488289	      3.29581307	     -3.83801279	    -20.65021156	      5.87084618	     -0.00000180	      0.00000000	      8.15257836	     -5.30412743	     -2.10513172	    -70.09681140	     -3.99295538	      0.00000077	      0.00000000	    -14.33365951	      3.53093175	     -3.22862127
      2.13300000	      5.76516117	     -1.74209420	      1.95003519	      0.60458833	      1.03490099	      0.03643534	      6.79785750	      3.49704688	     -3.35640883	    -19.04351803	      6.10788365	     -0.00000153	      0.00000000	     10.49486720	     -5.19078183	     -2.22963097	    -70.67320709	     -2.35485317	      0.00000026	      0.00000000	    -14.47128070	      3.14268899	     -2.44847138
      2.15000000	      5.76857842	     -1.65047690	      1.48824768	      0.60353749	      1.03771194	      0.03870110	      4.87200365	      3.62462300	     -2.79723608	    -17.43647907	      6.32604453	     -0.00000147	      0.00000000	     12.66505544	     -4.95473439	     -2.33003788	    -70.38492132	     -1.21183802	      0.00000021	      0.00000000	    -14.40609025	      2.76832798	     -1.73296419
